<svg aria-hidden="true" focusable="false" data-prefix="fal" data-icon="align-left" role="img" xmlns="http://www.w3.org/2000/svg" viewBox="0 0 448 512" class="svg-inline--fa fa-align-left fa-w-14 fa-7x"><path fill="#fff" d="M280 48H8a8 8 0 0 0-8 8v16a8 8 0 0 0 8 8h272a8 8 0 0 0 8-8V56a8 8 0 0 0-8-8zm160 384H8a8 8 0 0 0-8 8v16a8 8 0 0 0 8 8h432a8 8 0 0 0 8-8v-16a8 8 0 0 0-8-8zM280 304H8a8 8 0 0 0-8 8v16a8 8 0 0 0 8 8h272a8 8 0 0 0 8-8v-16a8 8 0 0 0-8-8zm160-128H8a8 8 0 0 0-8 8v16a8 8 0 0 0 8 8h432a8 8 0 0 0 8-8v-16a8 8 0 0 0-8-8z" class=""></path></svg>